<svg width="24" height="24" viewBox="0 0 24 24" fill="none" xmlns="http://www.w3.org/2000/svg">
<path d="M12.6667 10.6667C14.4853 10.6667 16.2294 10.1048 17.5154 9.10457C18.8014 8.10438 19.5238 6.74782 19.5238 5.33333C19.5238 3.91885 18.8014 2.56229 17.5154 1.5621C16.2294 0.561903 14.4853 0 12.6667 0C10.848 0 9.1039 0.561903 7.81793 1.5621C6.53197 2.56229 5.80952 3.91885 5.80952 5.33333C5.80952 6.74782 6.53197 8.10438 7.81793 9.10457C9.1039 10.1048 10.848 10.6667 12.6667 10.6667ZM15.7143 11.8519H9.61905C7.59909 11.8537 5.66256 12.4787 4.23424 13.5896C2.80592 14.7005 2.00242 16.2067 2 17.7778L2 20.1481C2 20.4625 2.16054 20.7639 2.44631 20.9862C2.73208 21.2085 3.11967 21.3333 3.52381 21.3333H21.8095C22.2137 21.3333 22.6012 21.2085 22.887 20.9862C23.1728 20.7639 23.3333 20.4625 23.3333 20.1481V17.7778C23.3309 16.2067 22.5274 14.7005 21.0991 13.5896C19.6708 12.4787 17.7342 11.8537 15.7143 11.8519Z" fill="white"/>
</svg>
