<svg width="25" height="15" viewBox="0 0 25 15" fill="none" xmlns="http://www.w3.org/2000/svg">
<g opacity="0.35" clip-path="url(#clip0_54674_243)">
<path d="M0 7.76602V7.22112C0.101756 6.90498 0.229603 6.68835 0.440942 6.42743C2.27777 4.15801 5.81183 1.62403 8.67861 0.646479C13.7351 -1.07682 18.2476 0.85097 22.021 3.97294C22.6766 4.51541 24.6856 6.31456 24.9146 7.00388C25.2466 8.00328 24.546 8.59126 23.9009 9.26541C20.6069 12.7059 15.7304 15.7424 10.5363 14.8382C6.99507 14.2217 3.39382 11.6847 1.04887 9.2199C0.632061 8.7818 0.17155 8.34308 0 7.76602ZM11.9035 2.51116C8.64273 2.79332 6.45433 5.88556 7.29968 8.81092C8.30289 12.283 12.9608 13.7017 15.9405 11.3534C20.014 8.14223 17.2431 2.04939 11.9041 2.51116H11.9035Z" fill="black"/>
<path d="M12.1964 3.91929C17.2692 3.52609 17.8295 10.7652 12.7671 11.0819C7.7563 11.3956 7.14838 4.31067 12.1964 3.91929Z" fill="black"/>
</g>
<defs>
<clipPath id="clip0_54674_243">
<rect width="25" height="15" fill="white"/>
</clipPath>
</defs>
</svg>
