<svg width="48" height="48" viewBox="0 0 48 48" fill="none" xmlns="http://www.w3.org/2000/svg">
<g filter="url(#filter0_d_54674_185)">
<circle cx="24" cy="20" r="20" fill="url(#paint0_linear_54674_185)"/>
<path fill-rule="evenodd" clip-rule="evenodd" d="M23.9503 32.9999L23.962 33H23.958L23.9503 32.9999ZM24.042 33H24.038L24.0497 32.9999L24.042 33ZM23.9106 32.9997L23.9232 32.9998H23.916L23.9106 32.9997ZM24.084 32.9998H24.0768L24.0894 32.9997L24.084 32.9998ZM23.8723 32.9994L23.8807 32.9995L23.874 32.9994H23.8723ZM24.126 32.9994L24.1193 32.9995L24.1277 32.9994H24.126ZM24.1679 32.999L24.165 32.999L24.1763 32.9989L24.1679 32.999ZM23.8237 32.9989L23.835 32.999L23.8321 32.999L23.8237 32.9989ZM24.2098 32.9984L24.203 32.9985L24.2169 32.9983L24.2098 32.9984ZM23.7831 32.9983L23.797 32.9985L23.7902 32.9984L23.7831 32.9983ZM24.2517 32.9977L24.2424 32.9978L24.2553 32.9976L24.2517 32.9977ZM23.7447 32.9976L23.7576 32.9978L23.7483 32.9977L23.7447 32.9976ZM23.6971 32.9966L23.7085 32.9969L23.7065 32.9968L23.6971 32.9966ZM24.2935 32.9968L24.2915 32.9969L24.3029 32.9966L24.2935 32.9968ZM23.6553 32.9955L23.671 32.9959L23.6647 32.9958L23.6553 32.9955ZM24.3353 32.9958L24.329 32.9959L24.3447 32.9955L24.3353 32.9958ZM24.3771 32.9947L24.3669 32.995L24.3829 32.9945L24.3771 32.9947ZM23.6171 32.9945L23.6331 32.995L23.6229 32.9947L23.6171 32.9945ZM24.4605 32.992L24.4548 32.9922L24.4724 32.9916L24.4605 32.992ZM23.5276 32.9916L23.5452 32.9922L23.5395 32.992L23.5276 32.9916ZM23.4896 32.9902L23.508 32.9909L23.4978 32.9905L23.4896 32.9902ZM24.5022 32.9905L24.492 32.9909L24.5104 32.9902L24.5022 32.9905ZM23.4523 32.9887L23.4702 32.9894L23.4562 32.9889L23.4523 32.9887ZM24.5438 32.9889L24.5298 32.9894L24.5477 32.9887L24.5438 32.9889ZM23.4 32.9864L23.4193 32.9873L23.4145 32.9871L23.4 32.9864ZM24.5855 32.9871L24.5807 32.9873L24.6 32.9864L24.5855 32.9871ZM23.3624 32.9847L23.3824 32.9856L23.373 32.9852L23.3624 32.9847ZM24.627 32.9852L24.6176 32.9856L24.6376 32.9847L24.627 32.9852ZM23.3255 32.9828L23.3456 32.9838L23.3315 32.9831L23.3255 32.9828ZM24.6685 32.9831L24.6544 32.9838L24.6745 32.9828L24.6685 32.9831ZM24.7101 32.981L24.6917 32.9819L24.708 32.9811L24.7272 32.98L24.7101 32.981ZM23.292 32.9811L23.3083 32.9819L23.2899 32.981L23.2728 32.98L23.292 32.9811ZM24.7515 32.9786L24.7434 32.9791L24.764 32.9779L24.7515 32.9786ZM23.236 32.9779L23.2566 32.9791L23.2485 32.9786L23.236 32.9779ZM23.1993 32.9757L23.2199 32.9769L23.2071 32.9762L23.1993 32.9757ZM24.7929 32.9762L24.7801 32.9769L24.8007 32.9757L24.7929 32.9762ZM23.1643 32.9735L23.1829 32.9747L23.1656 32.9736L23.1482 32.9725L23.1643 32.9735ZM24.8344 32.9736L24.8171 32.9747L24.8357 32.9735L24.8518 32.9725L24.8344 32.9736ZM24.8757 32.971L24.8695 32.9714L24.8892 32.97L24.8757 32.971ZM23.1108 32.97L23.1305 32.9714L23.1243 32.971L23.1108 32.97ZM23.0742 32.9675L23.0935 32.9689L23.0829 32.9682L23.0742 32.9675ZM24.9171 32.9682L24.9065 32.9689L24.9258 32.9675L24.9171 32.9682ZM23.0377 32.9649L23.0554 32.9662L23.0417 32.9652L23.0377 32.9649ZM24.9583 32.9652L24.9446 32.9662L24.9623 32.9649L24.9583 32.9652ZM22.9886 32.9612L23.0041 32.9624L23.0004 32.9621L22.9886 32.9612ZM24.9996 32.9621L24.9959 32.9624L25.0114 32.9612L24.9996 32.9621ZM25.0408 32.9589L25.0334 32.9595L25.0492 32.9582L25.0408 32.9589ZM22.9508 32.9582L22.9666 32.9595L22.9592 32.9589L22.9508 32.9582ZM22.914 32.9552L22.9274 32.9563L22.918 32.9556L22.914 32.9552ZM25.082 32.9556L25.0726 32.9563L25.086 32.9552L25.082 32.9556ZM25.1643 32.9485L25.1607 32.9488L25.1698 32.948L25.1643 32.9485ZM22.8302 32.948L22.8393 32.9488L22.8357 32.9485L22.8302 32.948ZM22.7921 32.9445L22.7989 32.9452L22.7947 32.9448L22.7921 32.9445ZM25.2053 32.9448L25.2011 32.9452L25.2079 32.9445L25.2053 32.9448ZM21.9688 32.842C15.7572 31.8656 11 26.484 11 20C11 12.8251 16.8251 7 24 7C31.1749 7 37 12.8251 37 20C37 26.484 32.2428 31.8656 26.0312 32.842V23.7578H29.0604L29.6367 20H26.0312V17.5615C26.0312 16.5334 26.5349 15.5313 28.1498 15.5313H29.7891V12.332C29.7891 12.332 28.3014 12.0781 26.879 12.0781C23.9096 12.0781 21.9688 13.8778 21.9688 17.136V20H18.668V23.7578H21.9688V32.842Z" fill="#518EF7"/>
</g>
<defs>
<filter id="filter0_d_54674_185" x="0" y="0" width="48" height="48" filterUnits="userSpaceOnUse" color-interpolation-filters="sRGB">
<feFlood flood-opacity="0" result="BackgroundImageFix"/>
<feColorMatrix in="SourceAlpha" type="matrix" values="0 0 0 0 0 0 0 0 0 0 0 0 0 0 0 0 0 0 127 0" result="hardAlpha"/>
<feOffset dy="4"/>
<feGaussianBlur stdDeviation="2"/>
<feComposite in2="hardAlpha" operator="out"/>
<feColorMatrix type="matrix" values="0 0 0 0 0 0 0 0 0 0 0 0 0 0 0 0 0 0 0.25 0"/>
<feBlend mode="normal" in2="BackgroundImageFix" result="effect1_dropShadow_54674_185"/>
<feBlend mode="normal" in="SourceGraphic" in2="effect1_dropShadow_54674_185" result="shape"/>
</filter>
<linearGradient id="paint0_linear_54674_185" x1="24" y1="0" x2="24" y2="40" gradientUnits="userSpaceOnUse">
<stop stop-color="#5686B7"/>
<stop offset="1" stop-color="#263B51"/>
</linearGradient>
</defs>
</svg>
