<svg width="48" height="48" viewBox="0 0 48 48" fill="none" xmlns="http://www.w3.org/2000/svg">
<g filter="url(#filter0_d_54674_186)">
<circle cx="24" cy="20" r="20" fill="url(#paint0_linear_54674_186)"/>
<g clip-path="url(#clip0_54674_186)">
<path d="M37.0002 19.0765V21.0055C36.8944 21.4737 36.8632 21.9562 36.773 22.4277C36.1735 25.5598 34.5654 28.1098 32.1266 30.0918L27.9128 26.691C28.1359 26.5634 28.4561 26.315 28.669 26.1529C29.8071 25.2877 30.7762 24.0528 31.2123 22.6808H24.3081V17.5538H36.7208C36.8367 17.5538 36.9514 18.8288 36.9534 18.9957L37.0002 19.0765Z" fill="url(#paint1_linear_54674_186)"/>
<path d="M27.9126 26.691L32.1263 30.0919C30.6146 31.3207 28.9116 32.2001 26.9895 32.6458L24.9684 32.9851C24.3221 32.9505 23.629 33.0319 22.9887 32.9851C18.5837 32.6621 14.6433 29.9561 12.5815 26.1326L16.7444 22.7318C18.3972 27.1545 23.8168 29.0354 27.9132 26.691H27.9126Z" fill="url(#paint2_linear_54674_186)"/>
<path d="M16.6937 17.4521L12.48 14.0513C13.3793 12.3122 14.4624 10.9531 16.0101 9.73857C20.765 6.008 27.596 6.10232 32.2547 9.93806L28.1277 13.3823C27.9982 13.4135 27.3308 13.0098 27.1348 12.9256C22.9889 11.1391 18.1627 13.1814 16.6937 17.4521Z" fill="url(#paint3_linear_54674_186)"/>
<path d="M16.6933 17.4521C16.1392 19.0623 16.146 21.1305 16.7442 22.7311L12.5813 26.1319C10.5053 22.2819 10.4755 17.9285 12.4796 14.0507L16.6933 17.4515V17.4521Z" fill="url(#paint4_linear_54674_186)"/>
</g>
</g>
<defs>
<filter id="filter0_d_54674_186" x="0" y="0" width="48" height="48" filterUnits="userSpaceOnUse" color-interpolation-filters="sRGB">
<feFlood flood-opacity="0" result="BackgroundImageFix"/>
<feColorMatrix in="SourceAlpha" type="matrix" values="0 0 0 0 0 0 0 0 0 0 0 0 0 0 0 0 0 0 127 0" result="hardAlpha"/>
<feOffset dy="4"/>
<feGaussianBlur stdDeviation="2"/>
<feComposite in2="hardAlpha" operator="out"/>
<feColorMatrix type="matrix" values="0 0 0 0 0 0 0 0 0 0 0 0 0 0 0 0 0 0 0.25 0"/>
<feBlend mode="normal" in2="BackgroundImageFix" result="effect1_dropShadow_54674_186"/>
<feBlend mode="normal" in="SourceGraphic" in2="effect1_dropShadow_54674_186" result="shape"/>
</filter>
<linearGradient id="paint0_linear_54674_186" x1="24" y1="0" x2="24" y2="40" gradientUnits="userSpaceOnUse">
<stop stop-color="#5686B7"/>
<stop offset="1" stop-color="#263B51"/>
</linearGradient>
<linearGradient id="paint1_linear_54674_186" x1="30.6542" y1="17.5538" x2="30.6542" y2="30.0918" gradientUnits="userSpaceOnUse">
<stop stop-color="#518EF7"/>
<stop offset="1" stop-color="#305391"/>
</linearGradient>
<linearGradient id="paint2_linear_54674_186" x1="22.3539" y1="22.7318" x2="22.3539" y2="33" gradientUnits="userSpaceOnUse">
<stop stop-color="#28B346"/>
<stop offset="1" stop-color="#114D1E"/>
</linearGradient>
<linearGradient id="paint3_linear_54674_186" x1="22.3673" y1="6.99988" x2="22.3673" y2="17.4521" gradientUnits="userSpaceOnUse">
<stop stop-color="#F04336"/>
<stop offset="1" stop-color="#8A271F"/>
</linearGradient>
<linearGradient id="paint4_linear_54674_186" x1="13.8721" y1="14.0507" x2="13.8721" y2="26.1319" gradientUnits="userSpaceOnUse">
<stop stop-color="#FABA01"/>
<stop offset="1" stop-color="#946E01"/>
</linearGradient>
<clipPath id="clip0_54674_186">
<rect width="26" height="26" fill="white" transform="translate(11 7)"/>
</clipPath>
</defs>
</svg>
