<svg width="24" height="24" viewBox="0 0 24 24" fill="none" xmlns="http://www.w3.org/2000/svg">
<path d="M22 5.72743V2.00412C22 1.45223 21.553 1.00431 21 1.00431C20.447 1.00431 20 1.45223 20 2.00412V4.36968L14.797 0.859339C13.098 -0.286446 10.902 -0.286446 9.203 0.859339L2.203 5.58245C0.824 6.51328 0 8.06199 0 9.72668V19.0009C0 21.7574 2.243 24 5 24H7C7.553 24 8 23.5521 8 23.0002V14.0019C8 13.451 8.448 13.0021 9 13.0021H15C15.552 13.0021 16 13.451 16 14.0019V23.0002C16 23.5521 16.447 24 17 24H19C21.757 24 24 21.7574 24 19.0009V9.72668C24 8.14597 23.256 6.66925 22 5.72743Z" fill="white"/>
</svg>
