<svg width="48" height="48" viewBox="0 0 48 48" fill="none" xmlns="http://www.w3.org/2000/svg">
<g opacity="0.8">
<rect width="48" height="48" rx="12" fill="#D9D9D9" fill-opacity="0.7"/>
<path d="M9.00684 18.0576L9.00586 18.04C8.92417 15.7167 9.70447 13.4642 11.1582 11.7734C12.6032 10.0929 14.5919 9.10693 16.6865 9.00098C17.9038 9.02716 19.0994 9.37246 20.1699 10.0107L20.3848 10.1436C21.4089 10.8024 22.7401 11.0928 24 11.0928C25.1812 11.0928 26.4252 10.8375 27.4199 10.2627L27.6152 10.1436C28.739 9.42056 30.0136 9.0291 31.3125 9.00098C33.4075 9.10667 35.3966 10.0927 36.8418 11.7734C38.2955 13.4642 39.0758 15.7167 38.9941 18.04L38.9932 18.0576V18.0752C38.9932 20.2542 38.1678 22.5936 36.834 24.9326C35.5052 27.2629 33.7125 29.5227 31.8779 31.5234C29.1261 34.5245 26.3276 36.8906 24.9775 37.9795L24.166 38.6191C24.0924 38.675 23.9972 38.6892 23.9131 38.6611L23.834 38.6191C23.5218 38.3806 19.781 35.5124 16.1221 31.5225C14.2874 29.5219 12.4949 27.2627 11.166 24.9326C9.83214 22.5937 9.00684 20.2543 9.00684 18.0752V18.0576Z" fill="url(#paint0_linear_54782_66)" stroke="url(#paint1_linear_54782_66)" stroke-width="2"/>
</g>
<defs>
<linearGradient id="paint0_linear_54782_66" x1="24" y1="8" x2="24" y2="40" gradientUnits="userSpaceOnUse">
<stop stop-color="#D57817"/>
<stop offset="1" stop-color="#6F3F0C"/>
</linearGradient>
<linearGradient id="paint1_linear_54782_66" x1="24" y1="8" x2="24" y2="40" gradientUnits="userSpaceOnUse">
<stop stop-color="#D57817"/>
<stop offset="1" stop-color="#6F3F0C"/>
</linearGradient>
</defs>
</svg>
